<svg width="318" height="77" viewBox="0 0 318 77" fill="none" xmlns="http://www.w3.org/2000/svg">
<path d="M282.089 75.9392H281.841L183.457 68.8258L62.4733 74.3793L62.3494 74.3169L1.98145 37.564L2.91018 37.1272L84.6392 1.80957H84.7011L178.813 7.30066L288.219 4.18072L288.404 4.36792L316.328 37.6264L316.019 38.0008L282.089 75.9392ZM183.519 67.765L281.656 74.8785L314.966 37.6264L287.785 5.3039L178.813 8.42383L84.8249 2.93275L4.27233 37.7512L62.7209 73.3185L183.519 67.765Z" fill="url(#paint0_linear)"/>
<path d="M282.522 76.3761L281.593 75.7521L248.035 53.7253L184.447 68.4514L185.004 68.8258L183.952 68.6386V69.0754L183.395 68.701L183.209 68.8258V68.701L181.228 69.1378L182.342 68.5138L98.0126 54.1621L61.7918 74.6913L62.1633 73.6305L69.7171 49.3574L0.495117 37.6265L77.3946 24.5851L84.515 1.68481L85.0103 1.99681L110.458 18.9693L177.636 7.55029L176.646 6.86391L178.379 7.2383V7.1135L178.689 7.3007L179.122 7.0511V7.3631L180.547 7.1135L179.927 7.48789L269.829 19.9676H269.891L270.139 20.03L288.032 4.18076L288.652 4.86715L271.439 20.0924H271.996L271.377 20.4668L315.771 37.2521L316.018 37.3145L316.514 37.5017L317.195 37.6265L317.009 37.6889L317.133 37.7513L315.709 38.1257L276.33 47.2359L282.522 76.3761ZM249.211 53.5381L281.16 74.5041L275.464 47.4231L249.211 53.5381ZM70.5839 49.5446L63.3397 72.8817L96.5886 53.9749L70.5839 49.5446ZM179.308 8.73587L183.89 67.5779L230.141 42.0568L179.308 8.73587ZM99.2509 53.5381L181.475 67.5154L132.376 34.6937L99.2509 53.5381ZM133.243 34.1945L182.961 67.3907L178.379 8.54867L133.243 34.1945ZM231.008 42.6184L186.552 67.1411L247.044 53.1013L231.008 42.6184ZM70.8316 48.671L97.8269 53.2885L131.509 34.1321L110.21 19.9052L78.0757 25.3339L70.8316 48.671ZM231.875 42.1192L248.221 52.7894L275.34 46.4871L271.563 28.4539L260.913 26.1451L231.875 42.1192ZM5.81988 37.6265L69.9647 48.5462L77.0851 25.5211L5.81988 37.6265ZM272.43 28.7035L276.145 46.3623L313.542 37.6889L272.43 28.7035ZM181.042 8.79827L231.008 41.5576L259.489 25.8955L181.042 8.79827ZM272.244 27.7051L309.765 35.8793L270.82 21.1532L272.244 27.7051ZM111.51 19.718L132.438 33.6954L176.398 8.73587L111.51 19.718ZM262.028 25.5211L271.315 27.5179L269.953 21.1532L262.028 25.5211ZM190.205 9.85905L260.666 25.2091L268.839 20.7164L263.576 19.9676L190.205 9.85905ZM85.0103 3.05759L78.3853 24.3979L109.157 19.1565L85.0103 3.05759Z" fill="url(#paint1_linear)"/>
<path d="M178.814 9.42218C179.668 9.42218 180.361 8.72376 180.361 7.86221C180.361 7.00067 179.668 6.30225 178.814 6.30225C177.959 6.30225 177.266 7.00067 177.266 7.86221C177.266 8.72376 177.959 9.42218 178.814 9.42218Z" fill="#1E959B"/>
<path d="M62.5969 76.1888C63.8964 76.1888 64.9497 75.1272 64.9497 73.8177C64.9497 72.5081 63.8964 71.4465 62.5969 71.4465C61.2975 71.4465 60.2441 72.5081 60.2441 73.8177C60.2441 75.1272 61.2975 76.1888 62.5969 76.1888Z" fill="#1E959B"/>
<path d="M281.841 77.0001C282.696 77.0001 283.389 76.3016 283.389 75.4401C283.389 74.5785 282.696 73.8801 281.841 73.8801C280.986 73.8801 280.293 74.5785 280.293 75.4401C280.293 76.3016 280.986 77.0001 281.841 77.0001Z" fill="#1E959B"/>
<path d="M315.647 39.9975C316.946 39.9975 318 38.9359 318 37.6264C318 36.3168 316.946 35.2552 315.647 35.2552C314.347 35.2552 313.294 36.3168 313.294 37.6264C313.294 38.9359 314.347 39.9975 315.647 39.9975Z" fill="#1E959B"/>
<path d="M288.032 7.55033C289.571 7.55033 290.819 6.29317 290.819 4.74239C290.819 3.19161 289.571 1.93445 288.032 1.93445C286.494 1.93445 285.246 3.19161 285.246 4.74239C285.246 6.29317 286.494 7.55033 288.032 7.55033Z" fill="#1E959B"/>
<path d="M183.519 71.5089C185.263 71.5089 186.677 70.0842 186.677 68.3266C186.677 66.5691 185.263 65.1443 183.519 65.1443C181.775 65.1443 180.361 66.5691 180.361 68.3266C180.361 70.0842 181.775 71.5089 183.519 71.5089Z" fill="#1E959B"/>
<path d="M3.15771 40.8088C4.90167 40.8088 6.31542 39.384 6.31542 37.6264C6.31542 35.8689 4.90167 34.4441 3.15771 34.4441C1.41376 34.4441 0 35.8689 0 37.6264C0 39.384 1.41376 40.8088 3.15771 40.8088Z" fill="#1E959B"/>
<path d="M84.763 4.7423C86.0624 4.7423 87.1158 3.6807 87.1158 2.37115C87.1158 1.0616 86.0624 0 84.763 0C83.4635 0 82.4102 1.0616 82.4102 2.37115C82.4102 3.6807 83.4635 4.7423 84.763 4.7423Z" fill="#1E959B"/>
<path d="M42.7221 20.4044C44.8892 21.4028 46.499 22.7756 47.6754 24.5851C48.8518 26.3947 49.409 28.5162 49.409 30.9498C49.409 33.3833 48.8518 35.5049 47.6754 37.3145C46.499 39.124 44.8892 40.4968 42.7221 41.4952C40.5551 42.4311 38.0784 42.9303 35.1684 42.9303H28.4815V52.0406H20.9277V18.9692H35.1065C38.0165 18.9692 40.5551 19.406 42.7221 20.4044ZM39.9359 35.1929C41.1123 34.1945 41.7315 32.8217 41.7315 30.9498C41.7315 29.0778 41.1123 27.6427 39.9359 26.6443C38.7595 25.6459 37.0259 25.1467 34.735 25.1467H28.5434V36.6281H34.735C36.9639 36.6905 38.6976 36.1913 39.9359 35.1929ZM66.9312 44.7399H62.4114V52.0406H54.9815V24.8347H67.2408C70.9558 24.8347 73.9277 25.7083 76.0948 27.5179C78.2618 29.3274 79.3763 31.761 79.3763 34.8809C79.3763 36.8777 78.881 38.5624 77.9523 40.06C77.0235 41.4952 75.6614 42.6807 73.9277 43.4919L79.9336 52.0406H71.9464L66.9312 44.7399ZM70.6462 31.761C69.7794 31.0122 68.4791 30.7002 66.7455 30.7002H62.4114V39.124H66.7455C68.4791 39.124 69.7794 38.7496 70.6462 38.0632C71.513 37.3145 71.9464 36.3161 71.9464 34.9433C71.9464 33.5081 71.513 32.4474 70.6462 31.761ZM90.5831 50.7302C88.3541 49.607 86.4967 47.8598 85.1964 45.6759C83.8962 43.5543 83.2151 41.1208 83.2151 38.4376C83.2151 35.7545 83.8962 33.3209 85.1964 31.1994C86.4967 29.0154 88.3541 27.2683 90.5831 26.1451C92.874 24.9595 95.4745 24.3355 98.3226 24.3355C101.171 24.3355 103.771 24.9595 106.062 26.1451C108.291 27.2683 110.149 29.0778 111.449 31.1994C112.749 33.3833 113.43 35.7545 113.43 38.4376C113.43 41.1208 112.749 43.5543 111.449 45.6759C110.149 47.7974 108.291 49.5446 106.062 50.7302C103.771 51.9158 101.171 52.5397 98.3226 52.5397C95.4745 52.5397 92.874 51.9158 90.5831 50.7302ZM102.285 45.4263C103.462 44.7399 104.39 43.7415 105.01 42.5559C105.691 41.308 106 39.8728 106 38.4376C106 36.8777 105.691 35.5049 105.01 34.3193C104.39 33.1337 103.4 32.1354 102.285 31.449C99.8705 30.0762 96.8985 30.0762 94.4838 31.449C93.3074 32.1354 92.3787 33.1337 91.6976 34.3193C91.0165 35.5049 90.7069 36.9401 90.7069 38.4376C90.7069 39.8728 91.0165 41.2456 91.6976 42.5559C92.3167 43.7415 93.3074 44.7399 94.4838 45.4263C96.8366 46.7991 99.8086 46.7991 102.285 45.4263ZM118.755 24.8347H131.448C134.481 24.8347 137.206 25.3963 139.497 26.4571C141.788 27.5179 143.583 29.1402 144.883 31.1994C146.122 33.2585 146.803 35.6297 146.803 38.4376C146.803 41.1832 146.184 43.5543 144.883 45.6135C143.645 47.6726 141.849 49.2326 139.497 50.3558C137.206 51.479 134.481 52.0406 131.448 52.0406H118.755V24.8347ZM131.2 46.1751C133.677 46.1751 135.658 45.4887 137.082 44.1783C138.506 42.8679 139.249 40.9336 139.249 38.5C139.249 36.0665 138.506 34.1321 137.082 32.7593C135.658 31.3866 133.677 30.7002 131.2 30.7002H126.123V46.1751H131.2ZM155.161 49.295C152.932 47.111 151.818 44.1159 151.818 40.3096V24.8347H159.248V40.06C159.248 42.1815 159.681 43.7415 160.61 44.8023C161.539 45.8631 162.901 46.4247 164.696 46.4247C166.43 46.4247 167.792 45.8631 168.659 44.8023C169.588 43.7415 170.021 42.1192 170.021 40.06V24.8347H177.327V40.3096C177.327 44.1159 176.213 47.111 173.984 49.295C171.755 51.479 168.597 52.5397 164.573 52.5397C160.548 52.5397 157.39 51.479 155.161 49.295ZM189.587 50.7302C187.358 49.607 185.5 47.8598 184.2 45.6759C182.9 43.5543 182.219 41.1208 182.219 38.4376C182.219 35.7545 182.9 33.3209 184.2 31.1994C185.5 29.0778 187.358 27.3307 189.587 26.1451C191.878 24.9595 194.416 24.3355 197.264 24.3355C199.865 24.3355 202.094 24.7099 204.013 25.5211C205.932 26.3323 207.542 27.5803 208.904 29.3274L204.137 33.6953C202.341 31.5114 200.174 30.4506 197.574 30.4506C195.283 30.4506 193.425 31.1994 191.939 32.6969C190.453 34.1945 189.71 36.1289 189.71 38.5C189.71 40.06 190.02 41.4952 190.701 42.6807C191.32 43.8663 192.311 44.8647 193.487 45.4887C194.726 46.1751 196.15 46.4871 197.574 46.4871C200.174 46.4871 202.341 45.4263 204.137 43.2423L208.904 47.6102C207.604 49.295 205.932 50.543 204.013 51.3542C202.094 52.1653 199.865 52.5397 197.264 52.5397C194.478 52.5397 191.878 51.9158 189.587 50.7302ZM218.625 30.6378H210.143V24.8347H234.538V30.6378H226.055V51.9781H218.625V30.6378ZM243.577 21.9644V34.9433H260.542V37.9384H243.577V51.9781H240.11V18.9068H262.585V21.902L243.577 21.9644ZM268.963 25.3339H272.306V52.0406H268.963V25.3339ZM286.795 28.1418H277.445V25.3339H299.487V28.1418H290.138V52.0406H286.795V28.1418ZM268.529 19.8428C267.972 21.0284 268.529 22.4636 269.706 22.9627C270.882 23.5243 272.306 22.9627 272.802 21.7772C273.359 20.5916 272.802 19.1564 271.625 18.6572C270.449 18.0956 269.025 18.5948 268.529 19.8428Z" fill="#1E959B"/>
<defs>
<linearGradient id="paint0_linear" x1="1.98206" y1="38.8998" x2="316.324" y2="38.8998" gradientUnits="userSpaceOnUse">
<stop stop-color="#AFDBDE"/>
<stop offset="1" stop-color="#C7E5E7"/>
</linearGradient>
<linearGradient id="paint1_linear" x1="0.464964" y1="39.0307" x2="317.167" y2="39.0307" gradientUnits="userSpaceOnUse">
<stop stop-color="#AFDBDE"/>
<stop offset="1" stop-color="#C7E5E7"/>
</linearGradient>
</defs>
</svg>
