<svg width="41" height="28" viewBox="0 0 41 28" fill="none" xmlns="http://www.w3.org/2000/svg">
<path d="M26.8936 13.956L40.1097 22.3111V5.24817L26.8936 13.956Z" fill="#1E959B"/>
<path d="M0.907227 5.24817V22.3111L14.1234 13.956L0.907227 5.24817Z" fill="#1E959B"/>
<path d="M37.6593 0.279297H3.35712C2.13449 0.279297 1.16423 1.19075 0.980469 2.36438L20.5082 15.2302L40.036 2.36438C39.8522 1.19075 38.8819 0.279297 37.6593 0.279297Z" fill="#1E959B"/>
<path d="M24.649 15.4359L21.182 17.7195C20.9762 17.8542 20.7434 17.9204 20.5082 17.9204C20.273 17.9204 20.0402 17.8542 19.8344 17.7195L16.3674 15.4335L0.985352 25.163C1.17401 26.3269 2.13938 27.231 3.3571 27.231H37.6593C38.877 27.231 39.8424 26.3269 40.031 25.163L24.649 15.4359Z" fill="#1E959B"/>
</svg>
